<svg width="132" height="16" viewBox="0 0 132 16" fill="none" xmlns="http://www.w3.org/2000/svg">
<path d="M39.7254 12.5091C39.7307 12.731 39.6887 12.9515 39.6021 13.1561C39.5156 13.3608 39.3865 13.5448 39.2232 13.6963C38.9016 14.0065 38.4692 14.1771 38.0212 14.1704C37.5665 14.1712 37.1282 14.002 36.7933 13.6963C36.6358 13.5496 36.5086 13.3738 36.4189 13.1788C36.3263 12.9738 36.2799 12.7513 36.2829 12.5266C36.2818 12.3048 36.3281 12.0853 36.4189 11.8827C36.5085 11.6827 36.6355 11.5016 36.7933 11.3488C36.955 11.1953 37.1429 11.0718 37.3484 10.9841C37.6603 10.8539 38.0036 10.8167 38.3365 10.877C38.6694 10.9372 38.9774 11.0924 39.2232 11.3237C39.3863 11.4748 39.5154 11.6586 39.6019 11.8629C39.6885 12.0672 39.7305 12.2874 39.7254 12.5091Z" fill="#76B900"/>
<path d="M9.21248 14.021C8.36627 14.2189 7.4993 14.3154 6.63004 14.3084C5.72082 14.3184 4.81738 14.1634 3.96401 13.8512C3.18486 13.5667 2.47148 13.1287 1.86663 12.5634C1.27542 12.0018 0.808308 11.324 0.495061 10.573C0.16502 9.79914 0 8.93763 0 7.98851C0 7.02769 0.167767 6.15759 0.503302 5.37824C0.819882 4.62484 1.29312 3.94655 1.89194 3.3879C2.49347 2.83085 3.20127 2.39949 3.97343 2.11935C4.79767 1.82046 5.66916 1.67116 6.54645 1.67855C7.45109 1.67038 8.35043 1.8165 9.20541 2.11057C10.0236 2.39936 10.6884 2.78631 11.1998 3.2714L9.3567 5.35717C9.04642 5.0097 8.66266 4.73482 8.23295 4.55225C7.7331 4.33637 7.19258 4.22938 6.6477 4.23848C6.16238 4.2335 5.6813 4.32878 5.23492 4.51829C4.80982 4.69935 4.42641 4.96489 4.10824 5.29863C3.78395 5.64105 3.53212 6.04476 3.36771 6.48581C3.18656 6.96505 3.09673 7.47364 3.10281 7.98559C3.09589 8.50336 3.17546 9.01868 3.33827 9.51054C3.48554 9.95443 3.72637 10.362 4.04466 10.7059C4.37054 11.0474 4.76837 11.3128 5.20961 11.4833C5.71188 11.6781 6.2476 11.7734 6.78662 11.7637C7.11235 11.7648 7.43761 11.7392 7.75908 11.687C8.05215 11.6404 8.33827 11.5579 8.61087 11.4412V9.25531H6.30687V6.91373H11.2834V13.2717C10.6255 13.6025 9.9303 13.8541 9.21248 14.021ZM16.6443 4.47907V6.94944H21.3158V9.33785H16.6443V13.9982H13.7646V1.99759H21.7067V4.47205L16.6443 4.47907ZM31.2524 14.0005L26.3948 6.15623H26.3424L26.4113 14.0005H23.5822V1.99993H26.9051L31.7463 9.83075H31.7975L31.7292 2.00051H34.5589V14.0011L31.2524 14.0005ZM47.9037 14.0005L45.2836 9.23774H44.2905V14.0005H41.4444V1.99993H46.0465C46.6161 1.99801 47.1843 2.05689 47.7412 2.17555C48.269 2.28556 48.772 2.49092 49.2252 2.78143C49.6612 3.06334 50.0209 3.44751 50.2725 3.90012C50.5346 4.36375 50.6655 4.93997 50.6651 5.62879C50.6651 6.44249 50.4432 7.12545 49.9993 7.67767C49.5555 8.22989 48.9425 8.62523 48.1604 8.86368L51.3126 13.9993L47.9037 14.0005ZM47.786 5.67855C47.786 5.39639 47.7271 5.16769 47.6094 4.99246C47.4929 4.81863 47.3333 4.67751 47.1461 4.58269C46.947 4.48343 46.7328 4.41737 46.5121 4.38717C46.2886 4.35419 46.0629 4.33737 45.8369 4.33682H44.2735V7.13676H45.6609C45.9076 7.13629 46.1538 7.11672 46.3973 7.07822C46.6351 7.04245 46.8661 6.9712 47.0825 6.8669C47.2861 6.76568 47.4599 6.61383 47.587 6.4261C47.7189 6.23526 47.7842 5.98412 47.7842 5.67855H47.786ZM62.576 11.4499C62.3419 12.0282 61.9839 12.5488 61.527 12.9755C61.0511 13.4122 60.4918 13.7494 59.8823 13.9671C59.1965 14.2117 58.4722 14.3323 57.7437 14.3231C56.9474 14.3231 56.2316 14.2044 55.5963 13.9671C54.9937 13.7504 54.4423 13.4129 53.9763 12.9755C53.5281 12.546 53.178 12.0257 52.9497 11.4499C52.7061 10.8203 52.5862 10.15 52.5965 9.47541V2.00051H55.4944V9.23774C55.4921 9.55302 55.5349 9.86701 55.6216 10.1703C55.703 10.4547 55.8361 10.722 56.0142 10.9588C56.1981 11.1964 56.4378 11.3853 56.7124 11.5091C57.0032 11.6449 57.3526 11.7126 57.7608 11.7122C58.1689 11.7118 58.5184 11.6441 58.8092 11.5091C59.0854 11.3842 59.3275 11.1956 59.5156 10.9588C59.6983 10.7251 59.8313 10.4568 59.9064 10.1703C59.9874 9.86605 60.027 9.55242 60.0242 9.23774V2.00051H62.9398V9.47541C62.9486 10.151 62.8245 10.8218 62.5742 11.4499H62.576Z" fill="black"/>
<path d="M68.9335 16H68.4308L72.7421 0H73.2448L68.9335 16Z" fill="#76B900"/>
<path d="M81.279 10.0337C81.279 10.1089 81.2642 10.1833 81.2354 10.2528C81.2065 10.3222 81.1641 10.3853 81.1107 10.4385C81.0573 10.4917 80.9939 10.5339 80.9241 10.5626C80.8543 10.5914 80.7794 10.6062 80.7038 10.6062H79.4088V12.0018H78.7424V8.57785H80.7068C80.7824 8.57785 80.8572 8.59266 80.927 8.62144C80.9968 8.65022 81.0602 8.6924 81.1137 8.74557C81.1671 8.79874 81.2094 8.86186 81.2383 8.93132C81.2672 9.00077 81.282 9.07521 81.2819 9.15036L81.279 10.0337ZM79.4059 9.99919H80.4413C80.4639 9.99926 80.4862 9.99489 80.5071 9.98632C80.5279 9.97775 80.5469 9.96515 80.5628 9.94926C80.5787 9.93336 80.5913 9.91448 80.5999 9.89371C80.6084 9.87294 80.6128 9.85069 80.6126 9.82825V9.35993C80.6126 9.31426 80.5947 9.27037 80.5628 9.23758C80.5308 9.20479 80.4872 9.18569 80.4413 9.18432H79.4059V9.99919ZM82.5934 8.57317H83.2698L84.5472 12.0018H83.8002L83.5571 11.3239H82.2349L81.9924 12.0018H81.3155L82.5934 8.57317ZM82.4321 10.7672H83.3557L82.8913 9.47175L82.4321 10.7672ZM87.8713 12.0018H87.1479L86.2996 10.6062H85.668V12.0018H85.0022V8.57785H87.0666C87.2193 8.57785 87.3658 8.63817 87.4737 8.74553C87.5817 8.8529 87.6423 8.99852 87.6423 9.15036V10.0337C87.6423 10.1856 87.5817 10.3312 87.4737 10.4386C87.3658 10.5459 87.2193 10.6062 87.0666 10.6062H87.0301L87.8713 12.0018ZM85.6698 9.99919H86.7882C86.8108 9.99926 86.8331 9.99489 86.854 9.98632C86.8748 9.97775 86.8938 9.96515 86.9097 9.94926C86.9256 9.93336 86.9382 9.91448 86.9468 9.89371C86.9553 9.87294 86.9597 9.85069 86.9595 9.82825V9.35993C86.9595 9.31426 86.9416 9.27037 86.9097 9.23758C86.8777 9.20479 86.8341 9.18569 86.7882 9.18432H85.6698V9.99919ZM90.8046 8.57785V9.17554H89.8198V12.0018H89.1493V9.17554H88.1651V8.57785H90.8046ZM92.0078 8.57317L93.5642 10.8474V8.57317H94.2306V11.9966H93.5442L91.989 9.72756V11.9966H91.3226V8.57317H92.0078ZM95.515 9.18549V9.98865H96.9137V10.5963H95.515V11.3942H97.2569V12.0018H94.8434V8.57785H97.2569V9.18549H95.515ZM100.641 12.0018H99.9217L99.0741 10.6062H98.4424V12.0018H97.7761V8.57785H99.8411C99.9166 8.57785 99.9915 8.59266 100.061 8.62144C100.131 8.65022 100.195 8.6924 100.248 8.74557C100.301 8.79874 100.344 8.86186 100.373 8.93132C100.401 9.00077 100.416 9.07521 100.416 9.15036V10.0337C100.416 10.1089 100.401 10.1833 100.373 10.2528C100.344 10.3222 100.301 10.3853 100.248 10.4385C100.195 10.4917 100.131 10.5339 100.061 10.5626C99.9915 10.5914 99.9166 10.6062 99.8411 10.6062H99.8005L100.641 12.0018ZM98.4401 9.99919H99.5585C99.5811 9.99934 99.6036 9.99503 99.6245 9.98649C99.6454 9.97796 99.6644 9.96537 99.6804 9.94947C99.6964 9.93356 99.7091 9.91466 99.7176 9.89385C99.7262 9.87304 99.7306 9.85074 99.7304 9.82825V9.35993C99.7304 9.31416 99.7125 9.27019 99.6804 9.23738C99.6483 9.20458 99.6045 9.18554 99.5585 9.18432H98.4401V9.99919ZM103.159 8.57317H103.836L105.113 12.0018H104.366L104.124 11.3239H102.801L102.558 12.0018H101.882L103.159 8.57317ZM102.998 10.7672H103.922L103.454 9.47175L102.998 10.7672ZM106.236 11.3942H107.751V12.0018H105.569V8.57785H106.236V11.3942ZM108.933 11.3942H110.448V12.0018H108.27V8.57785H108.936L108.933 11.3942ZM110.963 8.57785H111.636V12.0018H110.964L110.963 8.57785ZM113.36 8.57317H114.037L115.313 12.0018H114.566L114.324 11.3239H113.002L112.759 12.0018H112.083L113.36 8.57317ZM113.198 10.7672H114.122L113.657 9.47175L113.198 10.7672ZM116.457 8.57317L118.012 10.8474V8.57317H118.678V11.9966H117.993L116.439 9.72756V11.9966H115.772V8.57317H116.457ZM121.562 9.18549H120.103C120.058 9.18667 120.015 9.20506 119.983 9.23686C119.951 9.26867 119.933 9.31146 119.931 9.35642V11.2238C119.931 11.2463 119.936 11.2686 119.944 11.2893C119.953 11.3101 119.965 11.329 119.981 11.3448C119.997 11.3607 120.016 11.3732 120.037 11.3817C120.058 11.3902 120.081 11.3944 120.103 11.3942H121.562V12.0018H119.841C119.689 12.0021 119.543 11.9426 119.435 11.8363C119.327 11.73 119.266 11.5856 119.265 11.4346V9.15153C119.265 9.07635 119.28 9.0019 119.309 8.93244C119.338 8.86298 119.38 8.79987 119.434 8.74671C119.487 8.69354 119.551 8.65137 119.62 8.6226C119.69 8.59383 119.765 8.57902 119.841 8.57902H121.562V9.18549ZM122.801 9.18549V9.98865H124.2V10.5963H122.801V11.3942H124.543V12.0018H122.129V8.57785H124.543V9.18549H122.801ZM119.858 4.00124L121.412 6.27549V4.00124H122.079V7.42521H121.392L119.838 5.15622V7.42521H119.171V4.00124H119.858ZM122.659 4.57902C122.659 4.42795 122.718 4.28285 122.825 4.17553C122.932 4.06822 123.078 4.00743 123.23 4.0065H124.956C125.107 4.00743 125.253 4.06822 125.36 4.17553C125.467 4.28285 125.526 4.42795 125.526 4.57902V6.86206C125.526 6.93662 125.511 7.01048 125.483 7.0794C125.454 7.14833 125.412 7.21096 125.359 7.26371C125.306 7.31646 125.243 7.3583 125.174 7.38681C125.105 7.41533 125.031 7.42997 124.956 7.42989H123.233C123.158 7.42997 123.083 7.41533 123.014 7.38681C122.945 7.3583 122.882 7.31646 122.829 7.26371C122.776 7.21096 122.734 7.14833 122.705 7.0794C122.677 7.01048 122.662 6.93662 122.662 6.86206L122.659 4.57902ZM124.689 6.82167C124.712 6.82182 124.734 6.8175 124.755 6.80896C124.776 6.80042 124.795 6.78782 124.811 6.77191C124.827 6.756 124.84 6.73709 124.848 6.71628C124.857 6.69548 124.861 6.67319 124.861 6.65073V4.78976C124.861 4.74408 124.843 4.70019 124.811 4.66741C124.779 4.63462 124.735 4.61551 124.689 4.61414H123.498C123.452 4.61536 123.408 4.6344 123.376 4.66721C123.344 4.70001 123.326 4.74398 123.326 4.78976V6.6519C123.326 6.67439 123.33 6.69669 123.339 6.7175C123.347 6.73831 123.36 6.75721 123.376 6.77312C123.392 6.78902 123.411 6.80161 123.432 6.81014C123.453 6.81868 123.475 6.82299 123.498 6.82284L124.689 6.82167ZM127.977 4.00533H128.542L129.253 6.33637L129.883 4.00533H130.568L129.531 7.43047H128.947L128.246 5.22471L127.585 7.43047H127L125.896 4.0065H126.642L127.313 6.33754L127.977 4.00533ZM131.349 4.01119V4.07968H131.155V4.60653H131.078V4.07968H130.892V4.01177L131.349 4.01119ZM131.921 4.01119H132V4.60536H131.924V4.14232L131.747 4.43911H131.682L131.518 4.15636V4.60536H131.438V4.01177H131.513L131.713 4.35715L131.921 4.01119ZM96.3951 4.57785C96.395 4.50272 96.4098 4.42831 96.4387 4.35889C96.4676 4.28946 96.5099 4.22639 96.5634 4.17326C96.6168 4.12014 96.6802 4.07801 96.75 4.0493C96.8198 4.02058 96.8946 4.00584 96.9702 4.00592H99.1482V4.62292H97.2457C97.1997 4.62291 97.1554 4.64077 97.1224 4.67269C97.0895 4.70462 97.0703 4.7481 97.0691 4.79386V6.40018C97.0699 6.44515 97.088 6.48811 97.1197 6.52019L97.3622 6.76137C97.3785 6.77809 97.3981 6.79121 97.4198 6.79988C97.4415 6.80856 97.4648 6.81259 97.4882 6.81171H98.4118C98.4344 6.81187 98.4569 6.80755 98.4778 6.79902C98.4987 6.79048 98.5177 6.7779 98.5337 6.76199C98.5497 6.74609 98.5624 6.72719 98.5709 6.70638C98.5795 6.68557 98.5839 6.66327 98.5837 6.64078V6.02494H97.7714V5.40735H99.2654V6.86323C99.2643 7.01425 99.2031 7.1587 99.0952 7.265C98.9873 7.37129 98.8415 7.43079 98.6897 7.43047H97.155C97.1317 7.43076 97.1086 7.42646 97.087 7.41782C97.0654 7.40918 97.0457 7.39637 97.0291 7.38013L96.4404 6.79766C96.4088 6.76535 96.3909 6.72217 96.3904 6.67707L96.3951 4.57785ZM100.529 4.61297V5.41672H101.927V6.02436H100.529V6.82167H102.27V7.43047H99.857V4.00709H102.27V4.61414L100.529 4.61297ZM103.444 7.4293H102.772V4.00709H105.185V4.61414H103.444V5.41672H104.842V6.02436H103.444L103.444 7.4293ZM105.661 4.57785C105.661 4.42688 105.721 4.28193 105.828 4.17474C105.934 4.06755 106.08 4.00685 106.232 4.00592H107.958C108.11 4.00685 108.255 4.06755 108.362 4.17474C108.469 4.28193 108.529 4.42688 108.528 4.57785V6.86089C108.528 7.01133 108.468 7.15561 108.361 7.26199C108.254 7.36837 108.109 7.42813 107.958 7.42813H106.232C106.08 7.42813 105.935 7.36837 105.828 7.26199C105.721 7.15561 105.661 7.01133 105.661 6.86089V4.57785ZM107.692 6.82167C107.715 6.82182 107.737 6.81751 107.758 6.80897C107.779 6.80044 107.798 6.78785 107.814 6.77195C107.83 6.75604 107.843 6.73714 107.851 6.71633C107.86 6.69552 107.864 6.67322 107.864 6.65073V4.78976C107.864 4.74398 107.846 4.70001 107.814 4.66721C107.782 4.6344 107.738 4.61536 107.692 4.61414H106.501C106.455 4.61536 106.411 4.6344 106.379 4.66721C106.347 4.70001 106.329 4.74398 106.329 4.78976V6.6519C106.329 6.67439 106.333 6.69669 106.342 6.7175C106.351 6.73831 106.363 6.75721 106.379 6.77312C106.395 6.78902 106.414 6.80161 106.435 6.81014C106.456 6.81868 106.479 6.82299 106.501 6.82284L107.692 6.82167ZM111.967 7.4293H111.245L110.397 6.03372H109.766V7.43047H109.1V4.00709H111.165C111.241 4.00701 111.315 4.02175 111.385 4.05047C111.455 4.07918 111.518 4.12131 111.572 4.17443C111.625 4.22756 111.668 4.29064 111.697 4.36006C111.725 4.42949 111.74 4.50389 111.74 4.57902V5.46238C111.74 5.53754 111.725 5.61197 111.697 5.68143C111.668 5.75088 111.625 5.814 111.572 5.86717C111.519 5.92034 111.455 5.96253 111.385 5.9913C111.315 6.02008 111.241 6.0349 111.165 6.0349H111.125L111.967 7.4293ZM109.766 5.42609H110.885C110.907 5.42632 110.93 5.42208 110.951 5.41361C110.972 5.40514 110.991 5.39261 111.007 5.37675C111.023 5.36089 111.035 5.34202 111.044 5.32125C111.053 5.30047 111.057 5.2782 111.057 5.25574V4.78742C111.057 4.74164 111.039 4.69767 111.007 4.66487C110.975 4.63206 110.931 4.61302 110.885 4.6118H109.766V5.42609ZM114.621 4.61297H113.161C113.115 4.61416 113.072 4.63255 113.04 4.66435C113.008 4.69615 112.99 4.73895 112.989 4.78391V6.6519C112.989 6.67439 112.993 6.69669 113.001 6.7175C113.01 6.73831 113.023 6.75721 113.039 6.77312C113.055 6.78902 113.074 6.80161 113.095 6.81014C113.116 6.81868 113.138 6.82299 113.161 6.82284H114.619V7.43047H112.898C112.746 7.43079 112.6 7.37129 112.493 7.265C112.385 7.1587 112.323 7.01425 112.322 6.86323V4.58019C112.322 4.50503 112.337 4.43061 112.366 4.36119C112.395 4.29176 112.438 4.22868 112.491 4.17557C112.544 4.12245 112.608 4.08034 112.678 4.05163C112.748 4.02292 112.822 4.00818 112.898 4.00826H114.619L114.621 4.61297ZM115.843 4.61297V5.41672H117.241V6.02436H115.843V6.82167H117.581V7.43047H115.168V4.00709H117.581V4.61414L115.843 4.61297ZM79.4288 4.00182L80.9852 6.27842V4.00299H81.6522V7.42989H80.9646L79.4082 5.15915V7.42989H78.7413V4.00299L79.4288 4.00182ZM84.0156 7.42872H83.3298L82.0266 4.00299H82.7783L83.6972 6.5319L84.5801 4.00299H85.2642L84.0156 7.42872ZM85.6686 4.00182H86.3408V7.42872H85.6686V4.00182ZM86.9418 7.42872V4.00299H88.7208C89.0101 4.00346 89.2874 4.11795 89.492 4.32139C89.6965 4.52482 89.8117 4.80061 89.8121 5.08831V6.34515C89.8123 6.4877 89.7842 6.62887 89.7294 6.76058C89.6746 6.8923 89.5942 7.01196 89.4928 7.11273C89.3914 7.2135 89.271 7.29338 89.1385 7.3478C89.0061 7.40223 88.8641 7.43012 88.7208 7.42989L86.9418 7.42872ZM89.1352 5.12753C89.1353 5.05955 89.1218 4.99223 89.0957 4.92941C89.0696 4.86659 89.0313 4.80951 88.9829 4.76144C88.9346 4.71337 88.8772 4.67526 88.814 4.64928C88.7509 4.6233 88.6832 4.60997 88.6148 4.61005H87.607V6.82167H88.613C88.7503 6.82213 88.8821 6.76849 88.9796 6.67248C89.0772 6.57646 89.1325 6.44592 89.1334 6.30945L89.1352 5.12753ZM90.3772 4.00182H91.0495V7.42872H90.3772V4.00182ZM92.7319 4.00182H93.4076L94.6839 7.4293H93.9374L93.6949 6.75142H92.3734L92.1308 7.4293H91.4545L92.7319 4.00182ZM92.5635 6.19412H93.4871L93.0227 4.89982L92.5635 6.19412ZM94.6774 4.00124C94.759 4.00054 94.839 4.02398 94.9073 4.06858C94.9755 4.11318 95.0289 4.17694 95.0606 4.25175C95.0923 4.32656 95.101 4.40906 95.0855 4.48878C95.07 4.5685 95.031 4.64184 94.9735 4.6995C94.916 4.75716 94.8426 4.79654 94.7626 4.81264C94.6826 4.82874 94.5995 4.82083 94.524 4.78992C94.4485 4.75901 94.384 4.70649 94.3385 4.63903C94.2931 4.57157 94.2689 4.49221 94.2688 4.41101C94.2688 4.30264 94.312 4.19867 94.3889 4.12188C94.4658 4.04508 94.5702 4.0017 94.6791 4.00124H94.6774ZM94.6774 4.73766C94.7431 4.73894 94.8078 4.72069 94.8631 4.68525C94.9184 4.64981 94.9618 4.59878 94.9878 4.53869C95.0138 4.47859 95.0211 4.41216 95.009 4.34787C94.9968 4.28359 94.9656 4.22437 94.9195 4.17778C94.8733 4.1312 94.8142 4.09936 94.7497 4.08633C94.6853 4.0733 94.6184 4.07968 94.5576 4.10465C94.4968 4.12963 94.4448 4.17205 94.4084 4.22652C94.372 4.28098 94.3527 4.34501 94.353 4.41043C94.3533 4.49662 94.3877 4.57923 94.4487 4.64045C94.5097 4.70167 94.5925 4.73659 94.6791 4.73766H94.6774ZM94.8457 4.596H94.7568L94.6497 4.42038H94.6097V4.596H94.5279V4.21725H94.7733C94.7812 4.21653 94.7892 4.21755 94.7967 4.22023C94.8042 4.22292 94.8109 4.22721 94.8166 4.2328C94.8222 4.23838 94.8265 4.24513 94.8292 4.25256C94.8319 4.25999 94.8329 4.26792 94.8322 4.27578V4.36301C94.8327 4.37083 94.8315 4.37867 94.8288 4.38601C94.826 4.39335 94.8217 4.40001 94.8161 4.40555C94.8105 4.41109 94.8038 4.41539 94.7965 4.41815C94.7891 4.42091 94.7812 4.42207 94.7733 4.42155H94.7415L94.8457 4.596ZM94.7245 4.36828C94.7404 4.36828 94.7521 4.36125 94.7521 4.34311V4.30096C94.7521 4.28691 94.7427 4.27754 94.7245 4.27754H94.6067V4.36828H94.7245Z" fill="black"/>
</svg>
