<svg width="186" height="24" viewBox="0 0 186 24" fill="black" xmlns="http://www.w3.org/2000/svg" xmlns:xlink= "http://www.w3.org/1999/xlink"><path d="M74.84 13.2c.52-2.2 2.16-3.16 4.06-3.16 1.9 0 3.75.95 4 3.16h-8.06zm10.6 6.97l.26-3.03c-4.44 2.44-9.94 2.78-10.77-1.5h11.23V14.3c-.13-4.6-3.64-6.88-7.26-6.88-3.7 0-7.32 2.36-7.32 7.15 0 7.26 7.78 8.75 13.85 5.61zM58.5 13.2c.51-2.2 2.16-3.16 4.05-3.16 1.9 0 3.75.95 4 3.16H58.5zm10.59 6.97l.27-3.03c-4.45 2.44-9.95 2.78-10.78-1.5H69.8V14.3c-.13-4.6-3.64-6.88-7.26-6.88-3.7 0-7.32 2.36-7.32 7.15 0 7.26 7.78 8.75 13.86 5.61zM91.67 1.77h-3.1v19.57h3.1v-6.02c1.2 0 2.11 0 3.05.87a16.67 16.67 0 013.2 5.15h3.56c-.87-2.77-3.6-7.08-6.49-7.08v-.4c2.38 0 5.3-3.74 6.08-6.07H97.8a13.02 13.02 0 01-3.13 4.33c-.92.87-2.03.84-3 .84V1.77zM107.4 10.74V5.7h4.6c2.45 0 3.4 1.25 3.4 2.52 0 1.25-.95 2.52-3.4 2.52h-4.6zm0 7.75v-5.04h5.35c2.46 0 3.4 1.25 3.4 2.52 0 1.25-1 2.52-3.45 2.52h-5.3zm5.27-15.64h-8.51v18.48h9.32c3.97 0 5.97-2.25 5.97-4.95 0-2.4-1.73-4.1-4.67-4.29v-.43c2.8-.51 3.86-2.27 3.86-4.12 0-2.5-1.95-4.69-5.97-4.69zM121.84 7.78v13.55h3.1v-9.1c1.17-1.16 2.68-1.57 5.14-1.57h1.24l-.24-3.12h-1c-2.05 0-4 .9-4.75 2.77h-.38V7.78h-3.11zM135.1 14.56c0-2.98 1.7-4.5 3.96-4.5 1.84 0 3.12.57 4.25 1.74v5.52a5.48 5.48 0 01-4.25 1.74c-2.26 0-3.95-1.52-3.95-4.5zm8.22-6.78v1.98h-.36a5.48 5.48 0 00-4.7-2.4c-4.25 0-6.37 3.43-6.37 7.2 0 3.76 2.12 7.2 6.36 7.2 2.08 0 3.5-.8 4.71-2.4h.36v1.97h3.1V7.78h-3.1zM150.16 21.33h3.1V7.78h-3.1v13.55zm1.57-15.28c1.3 0 2.16-.86 2.16-2.16 0-1.3-.86-2.17-2.16-2.17-1.3 0-2.16.87-2.16 2.17 0 1.3.86 2.16 2.16 2.16zM160.12 7.78H157v13.55h3.1V11.8a5.42 5.42 0 013.9-1.74c1.65 0 3.2.92 3.2 3.69v7.58h3.11v-8.29c0-3.5-1.63-5.69-5-5.69-1.84 0-3.69.79-4.9 2.52h-.3V7.78zM172.93 11.72c0 2.4 2.24 3.36 3.97 3.74l3.97.84c1.3.27 1.89.65 1.89 1.3 0 .97-1.35 1.43-3.32 1.43-2.32 0-5-.9-6.48-1.7l.26 3.06c1.74.9 3.98 1.38 6.05 1.38 3.87 0 6.73-1.27 6.73-4.31 0-2.47-2.05-3.39-4.46-3.9l-3.62-.76c-1.13-.24-1.75-.62-1.75-1.27 0-.92 1.21-1.41 3.16-1.41 2.19 0 4.54.81 5.78 1.49l-.27-3.06c-1.49-.76-3.4-1.2-5.35-1.2-3.53 0-6.56 1.25-6.56 4.37zM43.92 11.13v2.97h5.76v3.33A9.33 9.33 0 0145 18.74c-3.65 0-6.97-2.38-6.97-6.62 0-4.23 3.32-6.61 6.97-6.61 2.35 0 4.84.95 7.1 2.86l-.33-3.78a12.76 12.76 0 00-7.13-2.12c-5.08 0-10.05 3.42-10.05 9.65s4.97 9.65 10.05 9.65a13 13 0 008.18-2.8v-7.84h-8.89zM16.73 8.65c.13 0 .29-.03.42-.05l.05.08c-.05.37.14.55.32.77.88.95 2.26 1.67 3.93.77.72.66.72 2.9 0 3.56-1.67-.9-3.05-.19-3.93.77-.18.21-.37.4-.32.77l-.05.08a1.75 1.75 0 00-2.18 1.7c0 .96.78 1.72 1.76 1.72.93 0 1.72-.77 1.72-1.72 0-.3-.08-.56-.21-.8l.08-.08c.24.06.37-.07.6-.31.48-.48 1.01-.88 1.7-.43.96.64.46 1.83-.28 2.84a9.11 9.11 0 01-3.96 3.14 4.28 4.28 0 01-2.76.02v1.97c3.1.88 5.97-.96 8.15-3.85 1.06-1.4 2.01-3.14.93-4.86l.08-.1c.29.02.5-.16.66-.46a4.53 4.53 0 000-4.35c-.16-.27-.32-.48-.66-.46l-.08-.1c1.08-1.73.13-3.48-.93-4.86C19.8 1.8 17.39.37 15.2.37A4.58 4.58 0 0010.6 5v1.94c0 1.35.53 2.04 1.43 3.02l.77.83c.24.26.4.45.77.45l.08.08c-.08.18-.13.42-.13.64 0 .95.8 1.75 1.72 1.75.99 0 1.75-.8 1.75-1.75a1.73 1.73 0 00-2.3-1.62l-.09-.08c0-.37-.18-.53-.42-.77l-.8-.82c-.56-.59-.85-1.12-.85-1.92V5.01c0-1 .35-1.8 1.04-2.28.71-.5 1.75-.56 2.81-.19a9.22 9.22 0 013.96 3.14c.74 1 1.25 2.2.3 2.84-.57.37-1.1.21-1.71-.43-.24-.26-.4-.34-.61-.32l-.08-.08c.14-.24.21-.5.21-.79a1.74 1.74 0 10-1.72 1.75zm-9.45 6.69c-.14 0-.3.02-.43.05l-.05-.08c.05-.37-.13-.56-.32-.77-.88-.96-2.25-1.68-3.93-.77-.71-.67-.71-2.9 0-3.56 1.68.9 3.05.18 3.93-.77.19-.22.37-.4.32-.77l.05-.08c.14.02.3.05.43.05.98 0 1.75-.8 1.75-1.75a1.74 1.74 0 00-3.48 0c0 .29.08.55.22.8l-.08.07c-.24-.05-.37.08-.61.32-.48.48-1.01.88-1.7.42-.96-.63-.46-1.83.29-2.84a9.11 9.11 0 013.95-3.13 4.28 4.28 0 012.76-.03V.55c-3.1-.87-5.97.96-8.15 3.85C1.17 5.8.22 7.53 1.3 9.26l-.08.1c-.29-.02-.5.16-.66.46a4.53 4.53 0 000 4.35c.16.27.32.48.66.45l.08.11c-1.08 1.72-.13 3.48.93 4.85 1.97 2.6 4.38 4.04 6.56 4.04a4.58 4.58 0 004.62-4.65v-1.93c0-1.36-.53-2.05-1.44-3.03l-.77-.82c-.24-.27-.4-.46-.77-.46l-.08-.07c.08-.19.14-.43.14-.64 0-.96-.8-1.75-1.73-1.75-.98 0-1.75.8-1.75 1.75a1.73 1.73 0 002.31 1.62l.08.08c0 .37.18.53.42.77l.8.82c.56.58.85 1.11.85 1.91v1.75c0 1.01-.35 1.81-1.04 2.29-.71.5-1.75.56-2.81.18a9.22 9.22 0 01-3.96-3.13c-.74-1-1.24-2.2-.29-2.84.56-.37 1.09-.22 1.7.42.24.27.4.35.61.32l.08.08c-.13.24-.21.5-.21.8a1.74 1.74 0 101.73-1.75z" fill="black"></path></svg>