<svg class="icon-logo" id="logo" xmlns="http://www.w3.org/2000/svg" viewBox="0 0 425.2 49.96"><title>Ресурс
        1</title>
        <g id="Слой_2" data-name="Слой 2">
            <g id="Слой_1-2" data-name="Слой 1">
                <path d="M155.44,7.79H114.55v9.73h21.39L113.47,46.36a1.37,1.37,0,0,0,1.08,2.21h41.9V38.84h-22.4L156.52,10a1.37,1.37,0,0,0-1.08-2.21"></path>
                <path d="M86.62,6.42c-13.87,0-25.11,9.75-25.11,21.77S72.75,50,86.62,50s25.12-9.75,25.12-21.77S100.5,6.42,86.62,6.42m0,33.08A11.53,11.53,0,0,1,74.88,28.19a11.75,11.75,0,0,1,23.49,0A11.53,11.53,0,0,1,86.62,39.5"></path>
                <path d="M253.79,27a10.73,10.73,0,0,0,3.13-7.48c0-6.46-6-11.69-13.49-11.69H215.7V48.57h31.23c7.32-.13,13.21-5.31,13.21-11.69A11.44,11.44,0,0,0,253.79,27m-25.6-10h11.13a4,4,0,0,1,4.23,3.66,4,4,0,0,1-4.23,3.66H228.19Zm14.52,22.41H228.19V32.08h14.52a4,4,0,0,1,4.22,3.65,4,4,0,0,1-4.22,3.66"></path>
                <rect x="315.81" y="7.8" width="12.48" height="40.78"></rect>
                <path d="M309.07,22.34c0-8-7.51-14.55-16.77-14.55H266.15V48.57h12.49V36.88h7.61l9.36,11.69h13.83L299.08,35.64c5.89-2.26,10-7.36,10-13.3m-20,6.09H278.64V17H289.1c3.64,0,6.6,2.56,6.6,5.72s-3,5.73-6.6,5.73"></path>
                <path d="M334.48,28.19c0,11.7,11.88,21.18,26.53,21.18a32.05,32.05,0,0,0,12-2.28V33.44c-2.31,3.23-6.68,5.4-11.69,5.4-7.42,0-13.44-4.77-13.44-10.65s6-10.65,13.44-10.65c5,0,9.53,2.22,11.69,5V9.29A32.05,32.05,0,0,0,361,7c-14.65,0-26.53,9.48-26.53,21.17"></path>
                <path d="M184.41,8.23,158.54,48.57h13.32l2.24-3.63h22.17l2.24,3.63h13.32L186,8.23a1,1,0,0,0-.78-.43.93.93,0,0,0-.78.43m-5.65,29.14,6.43-10.44,6.43,10.44Z"></path>
                <polygon points="408.2 26.76 422.97 7.8 410.48 7.8 392.37 31.05 392.37 7.79 379.89 7.79 379.89 48.58 391.2 48.58 401.06 35.92 410.93 48.58 425.2 48.58 408.2 26.76"></polygon>
                <path d="M28.24,14c5.59,0,10.12-3.14,10.12-7S33.83,0,28.24,0,18.11,3.14,18.11,7s4.53,7,10.13,7"></path>
                <path d="M54.55,8.72,28.24,32.11,1.92,8.72A1.13,1.13,0,0,0,.69,8.53,1.13,1.13,0,0,0,0,9.58v39H12.49V34L26.7,47.16a2.32,2.32,0,0,0,1.54.59,2.3,2.3,0,0,0,1.53-.59L44,34V48.57H56.47v-39a1.15,1.15,0,0,0-1.92-.86"></path>
            </g>
        </g>
    </svg>