<svg id="Layer_1" xmlns="http://www.w3.org/2000/svg" width="164" height="40" viewBox="0 0 164 40"><style>.st0{fill:#2b2b2a}.st1{fill:#fff}</style><path class="st1" d="M21.683 39a18.84 18.84 0 0 1-10.604-3.256 19.12 19.12 0 0 1-6.898-8.367A18.762 18.762 0 0 1 2.683 20 18.85 18.85 0 0 1 5.939 9.396 19.127 19.127 0 0 1 14.306 2.5 18.758 18.758 0 0 1 21.683 1h120.634c3.791 0 7.457 1.126 10.604 3.257a19.134 19.134 0 0 1 6.898 8.367A18.767 18.767 0 0 1 161.317 20a18.84 18.84 0 0 1-3.258 10.605 19.116 19.116 0 0 1-8.365 6.897A18.75 18.75 0 0 1 142.325 39H21.683z"/><path class="st0" d="M65.423 11.462a2.23 2.23 0 0 0-.192-.5 1.944 1.944 0 0 0-.267-.38 1.875 1.875 0 0 0-.635-.465 1.89 1.89 0 0 0-1.215-.106 2.19 2.19 0 0 0-.545.21 2.587 2.587 0 0 0-.414.284l-17.933 14.99V11.11a1.586 1.586 0 1 0-3.174 0v16.826c0 .19.017.39.07.602.04.16.098.327.19.5a1.915 1.915 0 0 0 .902.844c.248.111.52.162.764.16a2.018 2.018 0 0 0 .993-.262 2.65 2.65 0 0 0 .415-.283l.002-.002 17.934-14.99V28.89a1.588 1.588 0 0 0 3.175 0V12.065a2.726 2.726 0 0 0-.07-.603zM34.118 18.55a6.314 6.314 0 0 0-3.547-1.09h-8.254v-5.08h10.477a1.587 1.587 0 0 0 0-3.174H20.706v.002a1.602 1.602 0 0 0-1.1.463 1.603 1.603 0 0 0-.464 1.123v17.777c0 .877.71 1.588 1.59 1.588h9.84a6.279 6.279 0 0 0 2.468-.503 6.399 6.399 0 0 0 2.791-2.299 6.324 6.324 0 0 0 .588-6.017 6.39 6.39 0 0 0-2.3-2.79zm-.62 6.487a3.23 3.23 0 0 1-1.99 1.804 3.112 3.112 0 0 1-.937.142h-8.254v-6.348h8.254c.438 0 .85.089 1.229.249a3.219 3.219 0 0 1 1.802 1.987c.094.296.143.61.145.939-.002.437-.09.85-.25 1.227zm127.241-12.806c-1.525-3.586-4.066-6.642-7.258-8.803S146.442 0 142.317 0H21.683c-2.75 0-5.377.564-7.768 1.58A20.197 20.197 0 0 0 5.11 8.835 19.873 19.873 0 0 0 1.683 20c0 2.75.562 5.378 1.578 7.769a20.19 20.19 0 0 0 7.257 8.803A19.855 19.855 0 0 0 21.683 40h120.634c2.75.001 5.377-.563 7.768-1.578a20.178 20.178 0 0 0 8.803-7.256A19.862 19.862 0 0 0 162.318 20c0-2.748-.563-5.376-1.579-7.768zM160.413 20a17.959 17.959 0 0 1-1.428 7.023 18.292 18.292 0 0 1-6.57 7.972 17.958 17.958 0 0 1-10.098 3.1H21.683c-2.49 0-4.862-.507-7.024-1.426a18.284 18.284 0 0 1-7.97-6.571A17.953 17.953 0 0 1 3.587 20c0-2.488.508-4.86 1.428-7.023 1.377-3.243 3.681-6.014 6.572-7.971s6.363-3.1 10.096-3.1h120.634c2.489 0 4.86.508 7.024 1.426a18.296 18.296 0 0 1 7.97 6.572A17.965 17.965 0 0 1 160.413 20zm-17.46-10.476c-.878 0-1.589.711-1.589 1.587v7.392h-17.777V11.11a1.587 1.587 0 0 0-3.174 0v17.78a1.586 1.586 0 1 0 3.174 0v-7.212h17.777v7.212a1.588 1.588 0 0 0 3.176 0V11.11c0-.876-.71-1.587-1.588-1.587zm-37.364.782a1.585 1.585 0 0 0-2.734 0L92.377 28.084a1.589 1.589 0 0 0 2.736 1.611l2.344-3.98h13.527l2.346 3.98a1.586 1.586 0 1 0 2.734-1.611L105.59 10.306zm-6.26 12.234l4.893-8.302 4.892 8.302H99.33zm-12.828-3.673a6.568 6.568 0 0 0-.727-.423 5.698 5.698 0 0 0 .988-3.205 5.68 5.68 0 0 0-.452-2.223 5.76 5.76 0 0 0-2.07-2.511 5.673 5.673 0 0 0-3.192-.98H71.84c-.877 0-1.586.71-1.586 1.586V28.89a1.575 1.575 0 0 0 .07.471 1.589 1.589 0 0 0 1.516 1.115h11.111a6.33 6.33 0 0 0 2.471-.502 6.38 6.38 0 0 0 2.79-2.298 6.32 6.32 0 0 0 .585-6.018 6.4 6.4 0 0 0-2.297-2.79zM73.429 12.7h7.619c.35 0 .678.07.98.2a2.6 2.6 0 0 1 1.125.926 2.488 2.488 0 0 1 .434 1.413v.001c0 .35-.07.679-.2.982a2.584 2.584 0 0 1-1.59 1.443 2.529 2.529 0 0 1-.75.115H73.43V12.7zm12.447 12.657a3.21 3.21 0 0 1-1.984 1.804 3.17 3.17 0 0 1-.94.143H73.43v-6.35h9.523c.44 0 .85.089 1.229.25a3.221 3.221 0 0 1 1.804 1.987c.09.296.14.609.14.938a3.1 3.1 0 0 1-.249 1.228z"/></svg>